# xmcd
#
# Track frame offsets: 
#        150
#        14120
#        32265
#        49762
#        66890
#        83750
#        98455
#        115222
#        130472
#        148920
#        163332
#        179342
#
# Disc length: 2612 seconds
#
# Revision: 3
# Processed by: cddbd v1.5.2PL0 Copyright (c) Steve Scherf et al.
# Submitted via: ExactAudioCopy v1.3
#
DISCID=a50a320c
DTITLE=Amigos - Schenk' mir bitte diese Nacht
DYEAR=1993
DGENRE=Schlager
TTITLE0=Manuel und Mario
TTITLE1=Kinderträume
TTITLE2=Malibu
TTITLE3=Emanuela
TTITLE4=Tanze mit mir
TTITLE5=Lieber Papa
TTITLE6=In deinem Herzen Traurigkeit
TTITLE7=Die Sterne auf Elba
TTITLE8=Zwei Fischer von Athen
TTITLE9=Schenk mir bitte diese Nacht
TTITLE10=Der Himmel weiss
TTITLE11=Unser Junge
EXTD=
EXTT0=
EXTT1=
EXTT2=
EXTT3=
EXTT4=
EXTT5=
EXTT6=
EXTT7=
EXTT8=
EXTT9=
EXTT10=
EXTT11=
PLAYORDER=
